<svg width="84" height="21" viewBox="0 0 84 21" fill="none" xmlns="http://www.w3.org/2000/svg">
<path d="M0 4.26472C0 4.26472 2.09003 12.8451 2.4236 14.2378C2.81292 15.8633 3.51442 16.4616 5.53696 16.0581L6.84203 10.7384C7.1728 9.41699 7.39466 8.47493 7.60728 7.13074H7.64468C7.79408 8.48814 8.00681 9.42094 8.27901 10.743C8.27901 10.743 8.81027 13.158 9.08232 14.4265C9.3551 15.6945 10.1142 16.4937 12.0953 16.0586L15.205 4.26563H12.6943L11.6327 9.36429C11.3472 10.8484 11.0882 12.0081 10.8886 13.3658H10.8531C10.6716 12.0216 10.4408 10.9079 10.1506 9.46191L9.04523 4.26563H6.42934L5.24695 9.33099C4.91196 10.8702 4.59866 12.1132 4.39942 13.4248H4.36334C4.1593 12.1896 3.88754 10.6274 3.59326 9.13743C3.59326 9.13743 2.89077 5.51445 2.6443 4.26563L0.000244455 4.26597L0 4.26472ZM23.934 4.26472V16.0577H26.3244V13.5535V4.26416H23.934V4.26472ZM57.6001 4.26472V12.9646C57.6001 14.1641 57.8254 15.0045 58.3075 15.5179C58.7286 15.9669 59.4223 16.2576 60.2535 16.2576C60.9603 16.2576 61.6556 16.1234 61.9833 16.0011L61.9525 14.1296C61.7087 14.1897 61.4281 14.2378 61.0445 14.2378C60.2302 14.2378 59.9571 13.7153 59.9571 12.6383V9.30981H62.0389V7.05347H59.9571V4.26476H57.6L57.6001 4.26472ZM18.5921 6.99858C17.1065 6.99858 15.9273 7.41647 15.2845 7.78862L15.7549 9.40243C16.3432 9.03087 17.2799 8.72328 18.1668 8.72328C19.6352 8.71949 19.8753 9.55512 19.8753 10.0911V10.2178C16.6756 10.213 14.6545 11.3222 14.6545 13.5833C14.6545 14.9639 15.6834 16.2576 17.4724 16.2576C18.5737 16.2576 19.4947 15.8176 20.0467 15.1125H20.1009C20.1009 15.1125 20.4664 16.6437 22.4802 16.0582C22.3744 15.4209 22.34 14.7414 22.34 13.923V10.7726C22.34 8.76468 21.4843 6.99862 18.5921 6.99862L18.5921 6.99858ZM32.891 6.99858C31.3952 6.99858 30.723 7.75803 30.3154 8.40236H30.28V7.19858H27.9988V16.0583H30.4019V10.8624C30.4019 10.6188 30.4297 10.3613 30.5146 10.1372C30.7137 9.61406 31.1995 9.00213 31.9751 9.00213C32.9447 9.00213 33.3985 9.82343 33.3985 11.0087V16.0582H35.799V10.7995C35.799 10.5669 35.8308 10.2869 35.8991 10.0813C36.0964 9.48623 36.6201 9.00204 37.3411 9.00204C38.3241 9.00204 38.7959 9.80905 38.7959 11.2038V16.0582H41.1981V10.8401C41.1981 8.0882 39.8034 6.99863 38.2289 6.99863C37.5317 6.99863 36.9813 7.17379 36.4837 7.47984C36.0655 7.73696 35.6911 8.10228 35.3638 8.58333H35.3284C34.9476 7.62851 34.0543 6.99863 32.8906 6.99863L32.891 6.99858ZM46.0871 6.99858C44.6019 6.99858 43.4228 7.41647 42.7795 7.78862L43.2506 9.40243C43.8383 9.03087 44.7755 8.72328 45.662 8.72328C47.1294 8.71949 47.37 9.55512 47.37 10.0911V10.2178C44.1708 10.213 42.1495 11.3222 42.1495 13.5833C42.1495 14.9639 43.1789 16.2576 44.9688 16.2576C46.0692 16.2576 46.9906 15.8176 47.5416 15.1125H47.5959C47.5959 15.1125 47.9614 16.6437 49.9755 16.0582C49.8695 15.4209 49.8355 14.7414 49.8355 13.923V10.7726C49.8355 8.76468 48.9796 6.99862 46.087 6.99862L46.0871 6.99858ZM56.0665 6.99858C55.1463 6.99858 54.0993 7.59368 53.6599 8.86939H53.5928V7.19846H51.4295V16.0581H53.8956V11.5214C53.8956 11.2767 53.9104 11.0633 53.949 10.8676C54.1314 9.91729 54.857 9.30977 55.8983 9.30977C56.1841 9.30977 56.3887 9.34079 56.61 9.37282V7.05339C56.4244 7.01582 56.2975 6.9985 56.0666 6.9985L56.0665 6.99858ZM19.9525 11.7878V12.893C19.9525 13.0565 19.9383 13.2252 19.8931 13.3727C19.7081 13.9865 19.0733 14.5053 18.2799 14.5053C17.6184 14.5053 17.0929 14.1291 17.0929 13.3334C17.0929 12.1163 18.4302 11.7799 19.9525 11.7878H19.9525ZM47.4475 11.7878V12.893C47.4475 13.0565 47.433 13.2252 47.388 13.3727C47.203 13.9865 46.5686 14.5053 45.7751 14.5053C45.1134 14.5053 44.5879 14.1291 44.5879 13.3334C44.5879 12.1163 45.9251 11.7799 47.4475 11.7878H47.4475Z" fill="#7B9292"/>
<path d="M74.9626 0C74.1908 0 73.5775 0.431751 73.5775 0.95736L74.0461 6.27406C74.0979 6.59438 74.4895 6.84146 74.963 6.84146C75.4374 6.84084 75.8277 6.59397 75.8805 6.27406L76.3514 0.95736C76.3514 0.431796 75.7363 4.51457e-05 74.9635 4.51457e-05L74.9626 0ZM67.3252 4.2648C66.9245 4.27433 66.4694 4.57822 66.1799 5.08108C65.7927 5.75069 65.8614 6.499 66.3144 6.76152L71.144 9.01485C71.4457 9.12728 71.8554 8.91262 72.0927 8.50278C72.0928 8.50272 72.0927 8.50261 72.0927 8.50255C72.3311 8.09069 72.3127 7.62759 72.0617 7.42218L67.6997 4.35701C67.5864 4.29128 67.459 4.26169 67.3255 4.26487L67.3252 4.2648ZM82.5999 4.2648C82.4664 4.26163 82.3392 4.29121 82.2261 4.35695L77.8636 7.42211C77.6141 7.62752 77.5956 8.09063 77.8328 8.50248L77.833 8.50271C78.0712 8.91255 78.4796 9.12721 78.7813 9.01479L83.6131 6.76156C84.0679 6.49904 84.1331 5.75077 83.7486 5.08113C83.4578 4.57825 83.0019 4.27437 82.6013 4.26485L82.5999 4.2648ZM71.3244 11.2794C71.2619 11.2786 71.2013 11.2883 71.1446 11.3096L66.315 13.5603C65.862 13.8239 65.7934 14.5725 66.1806 15.2428C66.5666 15.9111 67.247 16.2288 67.7001 15.9668L72.0624 12.904C72.3134 12.696 72.3319 12.2331 72.0934 11.8216L72.0954 11.8225C71.9026 11.4874 71.5951 11.283 71.3244 11.2794L71.3244 11.2794ZM78.6029 11.2794C78.3324 11.2831 78.0256 11.4874 77.8323 11.8226L77.8341 11.8217C77.5968 12.2331 77.6151 12.6961 77.8647 12.904L82.2272 15.9668C82.6795 16.2289 83.3605 15.9112 83.7483 15.2429C84.1328 14.5726 84.0676 13.824 83.6127 13.5603L78.7825 11.3097C78.7257 11.2883 78.6653 11.2786 78.6029 11.2795L78.6029 11.2794ZM74.9619 13.4829C74.4892 13.4834 74.0984 13.7295 74.0468 14.049L73.5781 19.3654C73.5781 19.8919 74.1915 20.3228 74.9632 20.3228C75.7364 20.3228 76.3509 19.8919 76.3509 19.3654L75.8811 14.049C75.8283 13.7295 75.438 13.4835 74.9636 13.4829H74.9619H74.9619Z" fill="#7B9292"/>
</svg>
