<svg width="24" height="24" viewBox="0 0 24 24" fill="none" xmlns="http://www.w3.org/2000/svg">
<g clip-path="url(#clip0_12_128)">
<path d="M8.03136 23.8505C10.2394 23.8505 12.0314 22.0697 12.0314 19.8754V15.9004H8.03136C5.82336 15.9004 4.03135 17.6812 4.03135 19.8754C4.03135 22.0697 5.82336 23.8505 8.03136 23.8505Z" fill="#0ACF83"/>
<path d="M4.03135 11.9252C4.03135 9.73095 5.82336 7.95011 8.03136 7.95011H12.0314V15.9003H8.03136C5.82336 15.9003 4.03135 14.1194 4.03135 11.9252Z" fill="#A259FF"/>
<path d="M4.03135 3.97507C4.03135 1.78083 5.82336 0 8.03136 0H12.0314V7.95014H8.03136C5.82336 7.95014 4.03135 6.16931 4.03135 3.97507Z" fill="#F24E1E"/>
<path d="M12.0314 0H16.0314C18.2395 0 20.0315 1.78083 20.0315 3.97507C20.0315 6.16931 18.2395 7.95014 16.0314 7.95014H12.0314V0Z" fill="#FF7262"/>
<path d="M20.0315 11.9252C20.0315 14.1194 18.2395 15.9003 16.0314 15.9003C13.8234 15.9003 12.0314 14.1194 12.0314 11.9252C12.0314 9.73095 13.8234 7.95011 16.0314 7.95011C18.2395 7.95011 20.0315 9.73095 20.0315 11.9252Z" fill="#1ABCFE"/>
</g>
<defs>
<clipPath id="clip0_12_128">
<rect width="23.3934" height="23.2475" fill="white" transform="scale(1.02593)"/>
</clipPath>
</defs>
</svg>
