<svg width="40" height="39" viewBox="0 0 40 39" fill="none" xmlns="http://www.w3.org/2000/svg">
<path fill-rule="evenodd" clip-rule="evenodd" d="M39.1977 17.7626L21.7544 0.735599C20.7506 -0.2452 19.1212 -0.2452 18.1161 0.735599L14.494 4.27152L19.0888 8.757C20.1566 8.40482 21.3809 8.64104 22.2322 9.47206C23.0874 10.3082 23.3276 11.5137 22.9581 12.5595L27.3863 16.8824C28.4576 16.5221 29.6938 16.7553 30.5495 17.5919C31.7453 18.7588 31.7453 20.6502 30.5495 21.818C29.3532 22.9858 27.4157 22.9858 26.219 21.818C25.3195 20.9391 25.0972 19.6493 25.5527 18.5676L21.423 14.5361L21.4225 25.1451C21.714 25.2864 21.9893 25.4742 22.2322 25.7104C23.428 26.8774 23.428 28.7688 22.2322 29.9374C21.0359 31.1048 19.0975 31.1048 17.903 29.9374C16.7072 28.7688 16.7072 26.8774 17.903 25.7104C18.1985 25.4224 18.5404 25.2046 18.9051 25.0583V14.3504C18.5404 14.2049 18.1989 13.9884 17.903 13.6982C16.997 12.815 16.7791 11.5171 17.2433 10.431L12.7143 6.00889L0.753854 17.6839C-0.251285 18.6655 -0.251285 20.2561 0.753854 21.2369L18.1972 38.2644C19.2014 39.2452 20.8303 39.2452 21.8359 38.2644L39.1977 21.3161C40.2024 20.3349 40.2024 18.7434 39.1977 17.7626Z" fill="#DE4C36"/>
</svg>
