<svg width="24" height="24" viewBox="0 0 24 24" fill="none" xmlns="http://www.w3.org/2000/svg">
<path fill-rule="evenodd" clip-rule="evenodd" d="M12.0002 0.556299C5.52885 0.556299 0.28128 5.74467 0.28128 12.1451C0.28128 17.2654 3.6391 21.6093 8.29537 23.1417C8.88104 23.249 9.09606 22.8903 9.09606 22.5842C9.09606 22.3079 9.08519 21.395 9.08015 20.4266C5.81994 21.1277 5.132 19.0593 5.132 19.0593C4.59892 17.7198 3.83083 17.3636 3.83083 17.3636C2.76758 16.6443 3.91098 16.6591 3.91098 16.6591C5.08776 16.7409 5.70739 17.8534 5.70739 17.8534C6.7526 19.625 8.44887 19.1128 9.1176 18.8167C9.22278 18.0677 9.52649 17.5565 9.86163 17.2671C7.2587 16.974 4.52246 15.9804 4.52246 11.5398C4.52246 10.2746 4.98025 9.24081 5.7299 8.42924C5.60822 8.13735 5.2071 6.95866 5.84342 5.36239C5.84342 5.36239 6.8275 5.05093 9.06695 6.55029C10.0017 6.29352 11.0043 6.16475 12.0002 6.16034C12.9961 6.16475 13.9994 6.29352 14.9359 6.55029C17.1726 5.05093 18.1554 5.36239 18.1554 5.36239C18.7932 6.95866 18.3919 8.13735 18.2702 8.42924C19.0216 9.24081 19.4763 10.2746 19.4763 11.5398C19.4763 15.9909 16.7348 16.971 14.1253 17.2579C14.5457 17.6175 14.9202 18.3228 14.9202 19.404C14.9202 20.9546 14.9066 22.2025 14.9066 22.5842C14.9066 22.8926 15.1175 23.254 15.7116 23.1402C20.3653 21.6061 23.7189 17.2636 23.7189 12.1451C23.7189 5.74467 18.4721 0.556299 12.0002 0.556299ZM4.67038 17.0648C4.64458 17.1224 4.55298 17.1397 4.46953 17.1001C4.38453 17.0623 4.3368 16.9838 4.36435 16.9261C4.38958 16.8668 4.48137 16.8503 4.56617 16.89C4.65137 16.9278 4.69988 17.007 4.67038 17.0648ZM5.24682 17.5734C5.19094 17.6247 5.08168 17.6009 5.00755 17.5199C4.93089 17.4391 4.91653 17.3311 4.9732 17.2791C5.03084 17.2278 5.13679 17.2518 5.21364 17.3326C5.29029 17.4144 5.30524 17.5216 5.24682 17.5734ZM5.64228 18.2242C5.57048 18.2736 5.45307 18.2273 5.3805 18.1243C5.30869 18.0212 5.30869 17.8976 5.38205 17.8481C5.45482 17.7986 5.57048 17.8431 5.64403 17.9454C5.71564 18.0502 5.71564 18.1738 5.64228 18.2242ZM6.31109 18.9779C6.24686 19.048 6.11004 19.0292 6.00991 18.9336C5.90744 18.8402 5.87892 18.7075 5.94335 18.6375C6.00836 18.5673 6.14594 18.587 6.24686 18.6818C6.34854 18.7751 6.37959 18.9087 6.31109 18.9779ZM7.17546 19.2324C7.14712 19.3232 7.01536 19.3644 6.88262 19.3258C6.75008 19.2861 6.66333 19.1798 6.69011 19.0881C6.71767 18.9967 6.85002 18.9537 6.98372 18.995C7.11607 19.0345 7.20301 19.1401 7.17546 19.2324ZM8.15914 19.3403C8.16244 19.4359 8.04989 19.5151 7.91055 19.5169C7.77044 19.5199 7.65711 19.4426 7.65556 19.3486C7.65556 19.252 7.76559 19.1735 7.9057 19.1712C8.04503 19.1686 8.15914 19.2453 8.15914 19.3403ZM9.1255 19.3037C9.14219 19.3969 9.04536 19.4927 8.90699 19.5182C8.77095 19.5428 8.64501 19.4852 8.62774 19.3927C8.61086 19.2972 8.70944 19.2014 8.84528 19.1766C8.98384 19.1528 9.10784 19.2089 9.1255 19.3037Z" fill="#9B9B9B"/>
</svg>
