<svg width="114" height="24" viewBox="0 0 114 24" fill="none" xmlns="http://www.w3.org/2000/svg">
<path d="M32.6795 12.5913C33.2636 12.0646 33.6583 11.2826 33.8793 10.2294C33.9425 9.86233 33.9898 9.46337 33.9898 9.04845C33.9898 8.58565 33.8951 8.09093 33.7057 7.59622C33.4689 6.97383 33.1531 6.6387 32.7742 6.55891C32.2059 6.4472 31.6533 6.76638 31.1324 7.54834C30.7061 8.15477 30.4377 8.79311 30.2956 9.44741C30.2167 9.81446 30.1851 10.2134 30.1851 10.6124C30.1851 11.0752 30.2798 11.5699 30.4693 12.0646C30.7061 12.687 31.0218 13.0221 31.4007 13.1019C31.7954 13.1817 32.2217 13.0062 32.6795 12.5913Z" fill="#7B9292"/>
<path d="M23.981 10.2294C23.76 11.2826 23.3653 12.0646 22.7812 12.5913C22.3233 13.0062 21.8971 13.1817 21.5024 13.1019C21.1235 13.0221 20.8078 12.687 20.571 12.0646C20.3815 11.5699 20.2868 11.0752 20.2868 10.6124C20.2868 10.2134 20.3184 9.81446 20.3973 9.44741C20.5394 8.79311 20.8078 8.15477 21.234 7.54834C21.755 6.76638 22.3076 6.4472 22.8759 6.55891C23.2548 6.6387 23.5705 6.97383 23.8073 7.59622C23.9968 8.09093 24.0915 8.58565 24.0915 9.04845C24.0915 9.46337 24.0599 9.86233 23.981 10.2294Z" fill="#7B9292"/>
<path fill-rule="evenodd" clip-rule="evenodd" d="M3.58383 0H35.0163C37.0055 0 38.6158 1.62777 38.6158 3.63855V15.7671C38.6158 17.7778 37.0055 19.4056 35.0163 19.4056H23.7442L25.2913 23.2357L18.487 19.4056H3.59961C1.61042 19.4056 0.000115099 17.7778 0.000115099 15.7671V3.63855C-0.0156722 1.64373 1.59463 0 3.58383 0ZM1.92618 3.30334C2.14721 3.00013 2.47874 2.84054 2.92078 2.80862C3.72593 2.74479 4.18376 3.1278 4.29428 3.95764C4.78368 7.29298 5.32045 10.1176 5.88879 12.4316L9.3462 5.77692C9.66195 5.17049 10.0566 4.85132 10.5302 4.8194C11.2249 4.77153 11.6511 5.21837 11.8248 6.15992C12.2195 8.28241 12.7247 10.0857 13.3246 11.6178C13.7351 7.56428 14.4297 4.64386 15.4085 2.84054C15.6453 2.3937 15.9926 2.17028 16.4505 2.13837C16.8136 2.10645 17.1451 2.21816 17.4451 2.45754C17.745 2.69692 17.9029 3.00013 17.9345 3.36717C17.9503 3.65443 17.9029 3.89381 17.7766 4.13319C17.1609 5.2822 16.6557 7.21319 16.2452 9.89423C15.8506 12.4955 15.7085 14.5222 15.8032 15.9744C15.8348 16.3734 15.7716 16.7245 15.6137 17.0277C15.4243 17.3788 15.1401 17.5703 14.777 17.6022C14.3666 17.6341 13.9403 17.4426 13.5298 17.0117C12.0616 15.4957 10.8934 13.2296 10.0408 10.2134C9.01467 12.2561 8.25688 13.7881 7.76748 14.8095C6.83603 16.6128 6.04666 17.5384 5.3836 17.5863C4.95734 17.6182 4.59423 17.2511 4.27849 16.4851C3.47334 14.3945 2.60504 10.357 1.67359 4.37257C1.62623 3.95764 1.70516 3.59059 1.92618 3.30334ZM35.8685 5.80886C35.3002 4.80347 34.4635 4.19705 33.3426 3.95767C33.0426 3.89383 32.7584 3.86191 32.4901 3.86191C30.9745 3.86191 29.7431 4.65984 28.78 6.2557C27.9591 7.61218 27.5486 9.11229 27.5486 10.756C27.5486 11.9848 27.8012 13.0381 28.3064 13.9158C28.8748 14.9212 29.7115 15.5276 30.8324 15.767C31.1324 15.8308 31.4165 15.8628 31.6849 15.8628C33.2163 15.8628 34.4477 15.0648 35.3949 13.469C36.2159 12.0965 36.6263 10.5964 36.6263 8.9527C36.6263 7.70793 36.3737 6.67062 35.8685 5.80886ZM23.4442 3.95767C24.5494 4.19705 25.4019 4.80347 25.9702 5.80886C26.4754 6.67062 26.728 7.70793 26.728 8.9527C26.728 10.5964 26.3175 12.0965 25.4966 13.469C24.5494 15.0648 23.3179 15.8628 21.7866 15.8628C21.5182 15.8628 21.234 15.8308 20.9341 15.767C19.8132 15.5276 18.9764 14.9212 18.4081 13.9158C17.9029 13.0381 17.6503 11.9848 17.6503 10.756C17.6503 9.11229 18.0608 7.61218 18.8817 6.2557C19.8447 4.65984 21.0762 3.86191 22.5917 3.86191C22.8601 3.86191 23.1443 3.89383 23.4442 3.95767Z" fill="#7B9292"/>
<path d="M41.0312 9.687C41.0312 8.05923 41.5522 6.71871 42.61 5.66545C43.6677 4.61218 44.9938 4.08555 46.6041 4.1015C47.2198 4.1015 47.804 4.16534 48.325 4.30897V6.89425C47.7566 6.73467 47.2356 6.65487 46.7462 6.65487C45.9884 6.65487 45.3727 6.94213 44.8675 7.5326C44.3781 8.1071 44.1255 8.85716 44.1255 9.7668C44.1255 10.7403 44.3781 11.5063 44.8833 12.0808C45.3885 12.6393 46.0516 12.9266 46.8883 12.9266C47.2988 12.9266 47.7724 12.8468 48.325 12.6872V15.2725C47.725 15.448 47.1725 15.5278 46.6831 15.5278C44.9938 15.5278 43.6361 14.9852 42.5942 13.916C41.5522 12.8468 41.0312 11.4265 41.0312 9.687Z" fill="#7B9292"/>
<path fill-rule="evenodd" clip-rule="evenodd" d="M50.1563 5.55373C50.9772 4.58026 52.1139 4.08554 53.5663 4.08554C55.1135 4.08554 56.2975 4.58026 57.1342 5.55373C57.9552 6.54317 58.3657 7.94752 58.3657 9.7668C58.3657 11.5861 57.9552 13.0064 57.15 14.0118C56.3449 15.0172 55.1924 15.5278 53.6926 15.5278C52.1455 15.5278 50.9614 15.0172 50.1563 14.0118C49.3511 13.0064 48.9407 11.5542 48.9407 9.65509C48.9407 7.89965 49.3353 6.52721 50.1563 5.55373ZM53.5663 13.0543C54.1031 13.0543 54.5294 12.8308 54.8135 12.384C55.0977 11.9372 55.2556 11.0435 55.2714 9.73488C55.2714 7.61239 54.703 6.55912 53.5979 6.55912C52.5402 6.55912 52.0192 7.59643 52.0192 9.687C52.0192 11.0435 52.1455 11.9372 52.4139 12.384C52.6822 12.8308 53.0611 13.0543 53.5663 13.0543Z" fill="#7B9292"/>
<path d="M65.5962 6.83042L66.1646 4.38876H69.9219L71.3744 15.2565H68.5011L67.7275 7.78793L65.9278 15.2565H63.9701L62.0915 7.77197L61.3494 15.2565H58.6025L59.976 4.38876H63.6386C64.1596 6.73467 64.5701 8.74545 64.87 10.4371L65.1858 8.74545C65.3121 8.09115 65.4541 7.4528 65.5962 6.83042Z" fill="#7B9292"/>
<path d="M78.747 6.83042L79.3154 4.38876H83.057L84.5094 15.2565H81.6361L80.8625 7.78793L79.0786 15.2565H77.1209L75.2422 7.77197L74.5003 15.2565H71.7533L73.1268 4.38876H76.7894C77.3104 6.73467 77.7209 8.74545 78.0208 10.4371L78.3366 8.74545C78.4629 8.09115 78.6049 7.4528 78.747 6.83042Z" fill="#7B9292"/>
<path d="M90.8243 10.9637H88.251V12.9585H91.2348V15.2725H85.3461V4.40472H91.219V6.71871H88.251V8.71353H90.8243V10.9637Z" fill="#7B9292"/>
<path fill-rule="evenodd" clip-rule="evenodd" d="M99.8704 7.70814C99.8704 8.23477 99.7125 8.74545 99.4126 9.24016C99.1126 9.73488 98.6706 10.1019 98.118 10.3573L100.439 15.2565H97.376L95.0237 10.3094H94.9763V15.2565H92.0715V4.38876H95.45C96.8077 4.38876 97.897 4.69197 98.6863 5.28244C99.4757 5.8729 99.8704 6.68679 99.8704 7.70814ZM94.9606 6.47933V9.06462C96.2393 9.04866 96.8866 8.66565 96.8866 7.9156C96.8866 7.40493 96.7445 7.05384 96.4446 6.83042C96.1446 6.607 95.6552 6.49529 94.9606 6.47933Z" fill="#7B9292"/>
<path d="M99.9967 9.687C99.9967 8.05923 100.518 6.71871 101.575 5.66545C102.633 4.61218 103.975 4.08555 105.57 4.1015C106.185 4.1015 106.769 4.16534 107.29 4.30897V6.89425C106.722 6.73467 106.201 6.65487 105.712 6.65487C104.954 6.65487 104.338 6.94213 103.833 7.5326C103.344 8.1071 103.091 8.85716 103.091 9.7668C103.091 10.7403 103.344 11.5063 103.849 12.0808C104.354 12.6393 105.017 12.9266 105.854 12.9266C106.264 12.9266 106.738 12.8468 107.29 12.6872V15.2725C106.69 15.448 106.138 15.5278 105.649 15.5278C103.959 15.5278 102.602 14.9852 101.56 13.916C100.518 12.8468 99.9967 11.4265 99.9967 9.687Z" fill="#7B9292"/>
<path d="M111 10.9477V12.9425H114V15.2565H108.111V4.38876H113.984V6.70275H111V8.69757H113.574V10.9477H111Z" fill="#7B9292"/>
</svg>
