<svg width="37" height="42" viewBox="0 0 37 42" fill="none" xmlns="http://www.w3.org/2000/svg">
<path fill-rule="evenodd" clip-rule="evenodd" d="M18.5 41.7436C17.9255 41.7436 17.3892 41.5902 16.8913 41.3217L11.7971 38.2921C11.031 37.8702 11.4141 37.7168 11.6439 37.6401C12.678 37.295 12.8696 37.2183 13.942 36.6047C14.0569 36.528 14.2101 36.5664 14.325 36.6431L18.2319 38.9824C18.3851 39.0591 18.5766 39.0591 18.6915 38.9824L33.9741 30.1236C34.1273 30.0469 34.2039 29.8935 34.2039 29.7018V12.0226C34.2039 11.8309 34.1273 11.6775 33.9741 11.6008L18.6915 2.78035C18.5383 2.70365 18.3468 2.70365 18.2319 2.78035L2.94927 11.6008C2.79606 11.6775 2.71946 11.8692 2.71946 12.0226V29.7018C2.71946 29.8552 2.79606 30.0469 2.94927 30.1236L7.12422 32.5396C9.38405 33.6901 10.8012 32.3479 10.8012 31.0057V13.5566C10.8012 13.3265 10.9927 13.0964 11.2609 13.0964H13.2143C13.4441 13.0964 13.6739 13.2881 13.6739 13.5566V31.0057C13.6739 34.0353 12.0269 35.7994 9.15424 35.7994C8.27329 35.7994 7.58384 35.7994 5.63043 34.8406L1.60869 32.5396C0.612836 31.9644 0 30.8906 0 29.7401V12.061C0 10.9105 0.612836 9.83668 1.60869 9.26143L16.8913 0.402671C17.8488 -0.134224 19.1511 -0.134224 20.1087 0.402671L35.3913 9.26143C36.3871 9.83668 37 10.9105 37 12.061V29.7401C37 30.8906 36.3871 31.9644 35.3913 32.5396L20.1087 41.3984C19.6107 41.6285 19.0362 41.7436 18.5 41.7436ZM23.2112 29.5867C16.5083 29.5867 15.1294 26.5188 15.1294 23.911C15.1294 23.6809 15.3209 23.4508 15.589 23.4508H17.5807C17.8105 23.4508 18.0021 23.6042 18.0021 23.8343C18.3085 25.8668 19.1894 26.8639 23.2495 26.8639C26.4669 26.8639 27.8457 26.1353 27.8457 24.4095C27.8457 23.4124 27.4627 22.6838 22.4451 22.1853C18.2702 21.7634 15.6656 20.843 15.6656 17.5066C15.6656 14.4003 18.2702 12.5595 22.6366 12.5595C27.5393 12.5595 29.9524 14.2469 30.2588 17.9284C30.2588 18.0435 30.2205 18.1585 30.1439 18.2736C30.0673 18.3503 29.9524 18.427 29.8374 18.427H27.8457C27.6542 18.427 27.4627 18.2736 27.4244 18.0818C26.9648 15.9726 25.7774 15.2823 22.6366 15.2823C19.1128 15.2823 18.6915 16.5095 18.6915 17.4299C18.6915 18.542 19.1894 18.8872 23.9389 19.5008C28.6501 20.1144 30.8716 20.9964 30.8716 24.2945C30.8333 27.6692 28.0755 29.5867 23.2112 29.5867Z" fill="#539E43"/>
</svg>
