<svg width="77" height="15" viewBox="0 0 77 15" fill="none" xmlns="http://www.w3.org/2000/svg">
<path d="M26.018 0.00997551V5.68936H18.1057V0.00997551L15.2238 0.00741204V14.3276H18.1057V8.17556H26.018V14.3276H28.9046V0.00997551H26.018Z" fill="#7B9292"/>
<path d="M64.3568 0.0100063V14.3242H76.9999L75.3986 11.8042H67.2467V8.17559H75.1403V5.74841H67.2467V2.47097H75.385L76.9537 0.0100063H64.3568Z" fill="#7B9292"/>
<path d="M4.51178 0.00667084C1.51406 0.00667084 0 1.82909 0 4.48081V9.82617C0 12.8949 1.95115 14.3277 4.49681 14.3277L13.5383 14.3268L11.8622 11.7093H5.05538C3.60933 11.7093 2.97934 11.1867 2.97934 9.56826V4.71861C2.97934 3.15409 3.50969 2.54377 5.09387 2.54377H11.9332L13.5426 0.00667084H4.51178Z" fill="#7B9292"/>
<path d="M51.7084 0.00341969C49.9771 0.00341969 48.2026 1.04401 48.2026 3.72054V4.40827C48.2026 7.19856 49.91 8.2631 51.6182 8.27038H57.6141C58.2368 8.27038 58.7428 8.37387 58.7428 9.42643L58.7419 10.6424C58.7261 11.588 58.2543 11.8044 57.5927 11.8044H49.7047L48.0888 14.3244H57.7783C60.1148 14.3244 61.7011 13.1619 61.7011 10.4769V9.49016C61.7011 6.89405 60.2273 5.66741 57.9421 5.66741H52.217C51.5823 5.66741 51.14 5.49419 51.14 4.55411V3.56399C51.14 2.76335 51.4433 2.47123 52.1827 2.47123L59.6948 2.46824L61.2649 0L51.7084 0.00341969Z" fill="#7B9292"/>
<path d="M37.2772 0.0103769L30.4875 14.3271H33.6965L35.0189 11.3704H42.3971L43.7153 14.3271H46.9384L40.1329 0.0103769H37.2772ZM38.7009 2.98287L41.3099 8.93341H36.1087L38.7009 2.98287Z" fill="#7B9292"/>
</svg>
