<svg width="42" height="37" viewBox="0 0 42 37" fill="none" xmlns="http://www.w3.org/2000/svg">
<path d="M34.3216 11.9924C33.8885 11.8439 33.4398 11.7034 32.9778 11.5705C33.0538 11.2618 33.1234 10.957 33.1854 10.6575C34.2026 5.7384 33.5375 1.77558 31.2665 0.47085C29.0888 -0.780213 25.5274 0.524221 21.9305 3.64266C21.5846 3.94253 21.2378 4.26001 20.8911 4.59275C20.6601 4.3726 20.4295 4.15986 20.1994 3.95637C16.4298 0.621931 12.6513 -0.783248 10.3825 0.525257C8.20691 1.77995 7.56263 5.50538 8.47827 10.1672C8.56669 10.6175 8.67004 11.0773 8.78692 11.5448C8.25216 11.6961 7.7359 11.8573 7.24194 12.0288C2.82247 13.5638 0 15.9696 0 18.465C0 21.0422 3.02993 23.6272 7.63314 25.1947C7.99641 25.3184 8.37335 25.4353 8.76181 25.5464C8.63571 26.052 8.52604 26.5475 8.43398 27.0308C7.56092 31.6117 8.24273 35.2492 10.4125 36.4959C12.6537 37.7835 16.4151 36.46 20.0777 33.2705C20.3672 33.0184 20.6577 32.751 20.9488 32.4708C21.326 32.8327 21.7026 33.1752 22.0773 33.4964C25.6249 36.5378 29.1288 37.7659 31.2966 36.5157C33.5356 35.2244 34.2633 31.317 33.3186 26.5629C33.2464 26.1998 33.1625 25.8289 33.0682 25.4514C33.3323 25.3736 33.5916 25.2933 33.8445 25.2098C38.63 23.6302 41.7436 21.0766 41.7436 18.465C41.7436 15.9605 38.8301 13.5386 34.3216 11.9924ZM33.2836 23.5235C33.0554 23.5987 32.8212 23.6715 32.5825 23.7421C32.0542 22.0759 31.3412 20.3041 30.4687 18.4736C31.3013 16.6867 31.9868 14.9376 32.5003 13.2822C32.9273 13.4053 33.3417 13.5352 33.7411 13.6722C37.604 14.997 39.9603 16.9557 39.9603 18.465C39.9603 20.0726 37.4156 22.1595 33.2836 23.5235ZM31.5692 26.9079C31.9869 29.0101 32.0466 30.9107 31.7699 32.3965C31.5213 33.7316 31.0213 34.6217 30.4031 34.9782C29.0875 35.7368 26.2743 34.7508 23.2403 32.1497C22.8924 31.8516 22.5421 31.5332 22.1907 31.1962C23.3669 29.9147 24.5424 28.4248 25.6897 26.7702C27.7077 26.5918 29.6143 26.3001 31.3432 25.902C31.4284 26.2442 31.504 26.5798 31.5692 26.9079ZM14.2313 34.8471C12.946 35.2993 11.9224 35.3123 11.3036 34.9568C9.98684 34.2002 9.43945 31.2797 10.1861 27.3621C10.2716 26.9135 10.3734 26.4526 10.4908 25.9815C12.2008 26.3582 14.0933 26.6293 16.1162 26.7927C17.2712 28.4118 18.4807 29.9 19.6996 31.2031C19.4333 31.4592 19.168 31.7031 18.9042 31.9328C17.2847 33.3432 15.6617 34.3438 14.2313 34.8471ZM8.20988 23.5136C6.17443 22.8205 4.49347 21.9198 3.34126 20.9368C2.30592 20.0535 1.7832 19.1765 1.7832 18.465C1.7832 16.9507 4.04936 15.0192 7.82893 13.7064C8.28753 13.5471 8.7676 13.397 9.2658 13.256C9.78815 14.9487 10.4734 16.7185 11.3003 18.5082C10.4627 20.3244 9.76772 22.1224 9.24024 23.835C8.88507 23.7333 8.54098 23.6263 8.20988 23.5136ZM10.2283 9.82603C9.44383 5.83189 9.96485 2.81886 11.2759 2.06279C12.6724 1.25734 15.7606 2.40574 19.0153 5.28486C19.2234 5.46888 19.4322 5.66149 19.6417 5.86076C18.4288 7.15816 17.2304 8.63522 16.0856 10.2448C14.1224 10.4261 12.2431 10.7173 10.5153 11.1072C10.4067 10.6719 10.3104 10.2442 10.2283 9.82603ZM28.2346 14.2555C27.8216 13.5447 27.3975 12.8508 26.9652 12.1757C28.2971 12.3435 29.5732 12.5661 30.7715 12.8386C30.4118 13.9873 29.9633 15.1883 29.4355 16.4196C29.0568 15.7034 28.6564 14.9813 28.2346 14.2555ZM20.8917 7.1304C21.7142 8.01816 22.5379 9.00933 23.3481 10.0847C22.5317 10.0463 21.7052 10.0263 20.8718 10.0263C20.0463 10.0263 19.2258 10.0459 18.4144 10.0836C19.2254 9.01821 20.0563 8.02838 20.8917 7.1304ZM13.5017 14.2678C13.0891 14.9805 12.6961 15.6987 12.3234 16.4182C11.8041 15.1913 11.3598 13.9848 10.9969 12.8198C12.1879 12.5543 13.458 12.3372 14.7814 12.1726C14.343 12.8539 13.9155 13.5529 13.5017 14.2676V14.2678ZM14.8195 24.884C13.4522 24.732 12.163 24.5261 10.9723 24.2679C11.341 23.0821 11.7951 21.8499 12.3254 20.5965C12.699 21.3155 13.0937 22.034 13.5088 22.7483H13.5089C13.9317 23.476 14.3698 24.1889 14.8195 24.884ZM20.941 29.9248C20.0958 29.0163 19.2528 28.0113 18.4294 26.9304C19.2287 26.9616 20.0436 26.9776 20.8718 26.9776C21.7226 26.9776 22.5637 26.9585 23.3916 26.9218C22.5787 28.0222 21.758 29.0287 20.941 29.9248ZM29.4525 20.5326C30.0105 21.7995 30.4808 23.0254 30.8542 24.1909C29.6439 24.466 28.3371 24.6875 26.9603 24.8522C27.3936 24.1681 27.8214 23.4622 28.2417 22.7361C28.667 22.0015 29.0707 21.2658 29.4525 20.5326ZM26.6971 21.8485C26.0445 22.9757 25.3746 24.0517 24.6945 25.0674C23.4558 25.1556 22.1761 25.201 20.8718 25.201C19.5727 25.201 18.3091 25.1609 17.0924 25.0822C16.3848 24.0532 15.7004 22.974 15.052 21.8582H15.0521C14.4055 20.7455 13.8103 19.6234 13.271 18.5076C13.8102 17.3892 14.4038 16.2658 15.0467 15.1551L15.0466 15.1553C15.6912 14.0416 16.3697 12.9677 17.0707 11.9452C18.3121 11.8517 19.5851 11.8029 20.8717 11.8029H20.8718C22.1641 11.8029 23.4388 11.852 24.6799 11.9463C25.3702 12.9614 26.044 14.0319 26.6912 15.1457C27.3457 16.272 27.947 17.3879 28.4907 18.4823C27.9486 19.5956 27.3487 20.7227 26.6971 21.8485ZM30.3757 2.00994C31.7736 2.81301 32.3172 6.05181 31.4389 10.2989C31.3829 10.5699 31.3198 10.8459 31.2513 11.1256C29.5195 10.7276 27.6388 10.4313 25.6699 10.2473C24.5229 8.62004 23.3343 7.14069 22.1412 5.85995C22.4619 5.55253 22.7823 5.2594 23.1012 4.98277C26.183 2.31091 29.0634 1.25601 30.3757 2.00994ZM20.8718 14.7514C22.9304 14.7514 24.5993 16.414 24.5993 18.465C24.5993 20.5158 22.9304 22.1785 20.8718 22.1785C18.8131 22.1785 17.1442 20.5158 17.1442 18.465C17.1442 16.414 18.8131 14.7514 20.8718 14.7514Z" fill="#00D8FF"/>
</svg>
