<svg width="518" height="362" viewBox="0 0 518 362" fill="none" xmlns="http://www.w3.org/2000/svg">
<rect x="46.5" y="1.5" width="407" height="359" stroke="white" stroke-width="3" stroke-linejoin="round"/>
<rect x="63" y="19" width="374" height="204" fill="#A259FF"/>
<rect x="64.5" y="224.5" width="371" height="32" fill="black" stroke="#A259FF" stroke-width="3"/>
<ellipse cx="249.5" cy="133" rx="48.5" ry="48" fill="#FF8577" stroke="black" stroke-width="3"/>
<path d="M273.946 127.923C277.32 130.155 277.207 135.242 273.608 137.283L242.214 155.097L241.868 155.278C238.268 157.01 234 154.397 234 150.313L234 114.687C234 110.471 238.547 107.823 242.214 109.903L273.608 127.717L273.946 127.923Z" fill="white" stroke="black" stroke-width="3"/>
<path d="M123 240.5C123 239.672 123.672 239 124.5 239H171V242H124.5C123.672 242 123 241.328 123 240.5Z" fill="#A259FF"/>
<path d="M218 239H410.5C411.328 239 412 239.672 412 240.5C412 241.328 411.328 242 410.5 242H218V239Z" fill="#A259FF"/>
<rect x="168.5" y="235.5" width="51" height="10" fill="#FF8577" stroke="black" stroke-width="3"/>
<path d="M192 288.268C193.333 289.038 193.333 290.962 192 291.732L183 296.928C181.667 297.698 180 296.736 180 295.196L180 284.804C180 283.264 181.667 282.302 183 283.072L192 288.268Z" fill="white"/>
<path d="M182 288.268C183.333 289.038 183.333 290.962 182 291.732L173 296.928C171.667 297.698 170 296.736 170 295.196L170 284.804C170 283.264 171.667 282.302 173 283.072L182 288.268Z" fill="white"/>
<rect x="191" y="282" width="5" height="16" rx="2" fill="white"/>
<path d="M173.187 325.247C171.805 326.007 171.805 327.993 173.187 328.753L182.786 334.031C184.119 334.764 185.75 333.799 185.75 332.278L185.75 321.722C185.75 320.201 184.119 319.236 182.786 319.969L173.187 325.247Z" fill="white"/>
<path d="M184 325.268C182.667 326.038 182.667 327.962 184 328.732L193 333.928C194.333 334.698 196 333.736 196 332.196L196 321.804C196 320.264 194.333 319.302 193 320.072L184 325.268Z" fill="white"/>
<rect width="4" height="17" rx="2" transform="matrix(-1 0 0 1 174 318)" fill="white"/>
<path d="M434.447 106.939C433.861 107.525 433.861 108.475 434.447 109.061L443.993 118.607C444.579 119.192 445.529 119.192 446.115 118.607C446.7 118.021 446.7 117.071 446.115 116.485L437.629 108L446.115 99.5147C446.7 98.9289 446.7 97.9792 446.115 97.3934C445.529 96.8076 444.579 96.8076 443.993 97.3934L434.447 106.939ZM189 303.5C307.04 303.5 389.749 254.821 432.596 205.989C453.983 181.615 465.566 157.05 466.446 138.383C466.887 129.023 464.637 121.005 459.403 115.32C454.159 109.624 446.133 106.5 435.508 106.5V109.5C445.55 109.5 452.673 112.439 457.196 117.352C461.729 122.276 463.865 129.415 463.449 138.242C462.615 155.95 451.51 179.885 430.341 204.011C388.075 252.179 306.195 300.5 189 300.5V303.5Z" fill="#00B6FF"/>
<path d="M434.42 107.939C433.834 108.525 433.834 109.475 434.42 110.061L443.966 119.607C444.551 120.192 445.501 120.192 446.087 119.607C446.673 119.021 446.673 118.071 446.087 117.485L437.602 109L446.087 100.515C446.673 99.9289 446.673 98.9792 446.087 98.3934C445.501 97.8076 444.551 97.8076 443.966 98.3934L434.42 107.939ZM189 339.5C313.484 339.5 397.565 282.011 439.469 224.382C460.394 195.605 470.891 166.664 470.489 144.754C470.288 133.785 467.348 124.451 461.462 117.842C455.55 111.203 446.831 107.5 435.48 107.5V110.5C446.143 110.5 453.982 113.953 459.222 119.837C464.489 125.752 467.297 134.309 467.489 144.809C467.875 165.836 457.746 194.145 437.042 222.618C395.689 279.489 312.501 336.5 189 336.5V339.5Z" fill="#00B6FF"/>
<circle cx="183" cy="302" r="6.5" fill="black" stroke="#00B6FF" stroke-width="3"/>
<circle cx="183" cy="338" r="6.5" fill="black" stroke="#00B6FF" stroke-width="3"/>
<path d="M434.335 107.939C433.749 108.525 433.749 109.475 434.335 110.061L443.881 119.607C444.467 120.192 445.416 120.192 446.002 119.607C446.588 119.021 446.588 118.071 446.002 117.485L437.517 109L446.002 100.515C446.588 99.9289 446.588 98.9792 446.002 98.3934C445.416 97.8076 444.467 97.8076 443.881 98.3934L434.335 107.939ZM256 183.5C311.29 183.5 353.425 178.932 384.732 172.059C416.016 165.191 436.585 156.002 448.655 146.688C460.645 137.435 464.673 127.648 461.432 119.832C458.242 112.14 448.429 107.5 435.396 107.5V110.5C447.99 110.5 456.174 114.985 458.66 120.981C461.095 126.852 458.481 135.315 446.822 144.312C435.243 153.248 415.155 162.309 384.089 169.129C353.046 175.943 311.136 180.5 256 180.5V183.5Z" fill="#00B6FF"/>
<circle cx="250" cy="181" r="6.5" fill="black" stroke="#00B6FF" stroke-width="3"/>
<path d="M434.599 107.939C434.014 108.525 434.014 109.475 434.599 110.061L444.145 119.607C444.731 120.192 445.681 120.192 446.267 119.607C446.852 119.021 446.852 118.071 446.267 117.485L437.781 109L446.267 100.515C446.852 99.9289 446.852 98.9792 446.267 98.3934C445.681 97.8076 444.731 97.8076 444.145 98.3934L434.599 107.939ZM95 261.5C265.517 261.5 370.271 223.714 422.816 185.715C449.019 166.767 462.501 147.567 464.294 132.774C465.2 125.295 463.111 118.881 458.093 114.372C453.126 109.909 445.496 107.5 435.66 107.5V110.5C445.064 110.5 451.864 112.809 456.088 116.604C460.261 120.353 462.125 125.736 461.315 132.413C459.677 145.933 447.058 164.483 421.058 183.285C369.199 220.786 265.143 258.5 95 258.5V261.5Z" fill="#00B6FF"/>
<rect x="90" y="231" width="8" height="19" rx="4" fill="white" stroke="black" stroke-width="3"/>
<rect x="80" y="231" width="8" height="19" rx="4" fill="white" stroke="black" stroke-width="3"/>
<circle cx="89" cy="259" r="6.5" fill="black" stroke="#00B6FF" stroke-width="3"/>
<g filter="url(#filter0_d_5_163)">
<path d="M98.5 300L91 261L124 280.5L107.5 285L98.5 300Z" fill="#FFC700"/>
<path d="M92.0098 259.292L125.01 278.792L129.051 281.18L124.522 282.414L108.79 286.704L100.201 301.021L97.5312 305.472L96.5518 300.375L89.0518 261.375L88.2197 257.053L92.0098 259.292Z" stroke="black" stroke-width="3.96875" stroke-linecap="square"/>
</g>
<rect width="25" height="28" transform="translate(20)" fill="#00B6FF"/>
<path d="M27.2205 21.5439L27.2205 7.16504L39.0984 14.3545L27.2205 21.5439Z" stroke="black" stroke-width="2.44023"/>
<defs>
<filter id="filter0_d_5_163" x="73.5339" y="245.167" width="72.4734" height="81.6501" filterUnits="userSpaceOnUse" color-interpolation-filters="sRGB">
<feFlood flood-opacity="0" result="BackgroundImageFix"/>
<feColorMatrix in="SourceAlpha" type="matrix" values="0 0 0 0 0 0 0 0 0 0 0 0 0 0 0 0 0 0 127 0" result="hardAlpha"/>
<feOffset dy="3.96875"/>
<feGaussianBlur stdDeviation="5.95312"/>
<feColorMatrix type="matrix" values="0 0 0 0 0 0 0 0 0 0 0 0 0 0 0 0 0 0 0.35 0"/>
<feBlend mode="normal" in2="BackgroundImageFix" result="effect1_dropShadow_5_163"/>
<feBlend mode="normal" in="SourceGraphic" in2="effect1_dropShadow_5_163" result="shape"/>
</filter>
</defs>
</svg>
