<svg width="109" height="109" viewBox="0 0 109 109" fill="none" xmlns="http://www.w3.org/2000/svg">
<g clip-path="url(#clip0_10_253)">
<path opacity="0.65" d="M54.5037 109.007C84.6053 109.007 109.007 84.6053 109.007 54.5037C109.007 24.4021 84.6053 0 54.5037 0C24.4021 0 0 24.4021 0 54.5037C0 84.6053 24.4021 109.007 54.5037 109.007Z" fill="#9258FB" fill-opacity="0.23"/>
<path d="M57.9949 46.3301V38.3379C57.9949 37.9225 57.8094 37.5509 57.5172 37.306C57.4527 37.2536 57.3838 37.2055 57.3111 37.1618C57.1256 37.0612 56.9105 37 56.6824 37H38.3124C37.5895 37 37 37.599 37 38.3379V71.6665C37 72.405 37.5895 73 38.3124 73H56.6824C57.4096 73 57.9953 72.4054 57.9953 71.6665V61.8642H56.1364V66.4987H38.8589V39.1686H56.1359V46.3301H57.9949ZM47.4953 67.666C48.5409 67.666 49.3843 68.5273 49.3843 69.5858C49.3843 70.6439 48.5409 71.5008 47.4953 71.5008C46.4539 71.5008 45.6105 70.6439 45.6105 69.5858C45.6105 68.5273 46.4539 67.666 47.4953 67.666Z" fill="#6854FC"/>
<path d="M51.3506 52.8315V58.7819C51.3506 59.3018 50.9375 59.7259 50.4254 59.7259H44.5689C44.0568 59.7259 43.6394 59.3018 43.6394 58.7819V52.8315C43.6394 52.3112 44.0568 51.8871 44.5689 51.8871H50.4254C50.9375 51.8871 51.3506 52.3112 51.3506 52.8315Z" fill="#6854FC"/>
<path d="M73.0001 43.2958V51.1131C73.0001 51.7995 72.4532 52.3548 71.7823 52.3548H67.7762V48.8615C67.7762 47.4668 66.6573 46.33 65.2847 46.33H62.8706V43.2958C62.8706 42.6137 63.4171 42.0585 64.0884 42.0585H71.7823C72.4536 42.0585 73.0001 42.6137 73.0001 43.2958Z" fill="#6854FC"/>
<path d="M66.9149 48.8615V56.9499H63.9845C62.999 56.9499 62.1987 57.7675 62.1987 58.7687V60.9897H54.978C54.0744 60.9897 53.3472 60.2509 53.3472 59.3327V48.8615C53.3472 47.9477 54.0744 47.2045 54.978 47.2045H65.284C66.1833 47.2045 66.9149 47.9477 66.9149 48.8615Z" fill="#6854FC"/>
<path d="M70.7664 58.7687V64.7192C70.7664 65.2394 70.3533 65.6635 69.8413 65.6635H63.9847C63.4727 65.6635 63.0596 65.2394 63.0596 64.7192V58.7687C63.0596 58.2484 63.4727 57.8243 63.9847 57.8243H69.8413C70.3533 57.8243 70.7664 58.2484 70.7664 58.7687Z" fill="#6854FC"/>
</g>
<defs>
<clipPath id="clip0_10_253">
<rect width="109" height="109" fill="white"/>
</clipPath>
</defs>
</svg>
