<svg width="24" height="24" viewBox="0 0 24 24" fill="none" xmlns="http://www.w3.org/2000/svg">
<path fill-rule="evenodd" clip-rule="evenodd" d="M8.79917 0.000126653C7.47253 0.00110521 6.39886 1.07556 6.39984 2.39955C6.39886 3.72354 7.47351 4.798 8.80015 4.79898H11.2005V2.40053C11.2014 1.07654 10.1268 0.00208377 8.79917 0.000126653C8.80015 0.000126653 8.80015 0.000126653 8.79917 0.000126653V0.000126653ZM8.79917 6.3999H2.40031C1.07367 6.40088 -0.000977838 7.47534 2.67963e-06 8.79933C-0.00195836 10.1233 1.07269 11.1978 2.39933 11.1997H8.79917C10.1258 11.1988 11.2005 10.1243 11.1995 8.80031C11.2005 7.47534 10.1258 6.40088 8.79917 6.3999Z" fill="#7B9292"/>
<path fill-rule="evenodd" clip-rule="evenodd" d="M23.999 8.7992C24 7.47521 22.9254 6.40076 21.5987 6.39978C20.2721 6.40076 19.1974 7.47521 19.1984 8.7992V11.1996H21.5987C22.9254 11.1986 24 10.1242 23.999 8.7992ZM17.5992 8.7992V2.39943C17.6002 1.07642 16.5265 0.00195712 15.1999 0C13.8732 0.000978559 12.7986 1.07544 12.7996 2.39943V8.7992C12.7976 10.1232 13.8722 11.1977 15.1989 11.1996C16.5255 11.1986 17.6002 10.1242 17.5992 8.7992Z" fill="#7B9292"/>
<path fill-rule="evenodd" clip-rule="evenodd" d="M15.1999 23.999C16.5265 23.998 17.6012 22.9236 17.6002 21.5996C17.6012 20.2756 16.5265 19.2011 15.1999 19.2002H12.7996V21.5996C12.7986 22.9226 13.8732 23.9971 15.1999 23.999ZM15.1999 17.5983H21.5997C22.9264 17.5973 24.001 16.5228 24 15.1988C24.002 13.8748 22.9273 12.8004 21.6007 12.7984H15.2008C13.8742 12.7994 12.7996 13.8739 12.8005 15.1978C12.7996 16.5228 13.8732 17.5973 15.1999 17.5983Z" fill="#7B9292"/>
<path fill-rule="evenodd" clip-rule="evenodd" d="M6.70441e-07 15.1989C-0.000979847 16.5229 1.07367 17.5973 2.40031 17.5983C3.72695 17.5973 4.80159 16.5229 4.80061 15.1989V12.7994H2.40031C1.07367 12.8004 -0.000979847 13.8749 6.70441e-07 15.1989ZM6.39984 15.1989V21.5986C6.39788 22.9226 7.47252 23.9971 8.79916 23.9991C10.1258 23.9981 11.2005 22.9236 11.1995 21.5996V15.2008C11.2014 13.8768 10.1268 12.8024 8.80014 12.8004C7.47252 12.8004 6.39886 13.8749 6.39984 15.1989C6.39984 15.1998 6.39984 15.1989 6.39984 15.1989Z" fill="#7B9292"/>
</svg>
